<?xml version="1.0" encoding="UTF-8" standalone="no"?>
<!DOCTYPE svg PUBLIC "-//W3C//DTD SVG 1.0//EN" "http://www.w3.org/TR/2001/PR-SVG-20010719/DTD/svg10.dtd">
<svg width="46cm" height="31cm" viewBox="19 19 919 618" xmlns="http://www.w3.org/2000/svg" xmlns:xlink="http://www.w3.org/1999/xlink">
  <g>
    <rect style="fill: #ffffff" x="20" y="20" width="102.4" height="44"/>
    <rect style="fill: none; fill-opacity:0; stroke-width: 2; stroke: #000000" x="20" y="20" width="102.4" height="44"/>
    <text font-size="12.8" style="fill: #000000;text-anchor:middle;font-family:monospace;font-style:normal;font-weight:normal" x="71.2" y="36">&lt;&lt;abstract&gt;&gt;</text>
    <text font-size="16" style="fill: #000000;text-anchor:middle;font-family:sans-serif;font-style:italic;font-weight:700" x="71.2" y="55">Entita</text>
    <rect style="fill: #ffffff" x="20" y="64" width="102.4" height="20"/>
    <rect style="fill: none; fill-opacity:0; stroke-width: 2; stroke: #000000" x="20" y="64" width="102.4" height="20"/>
    <text font-size="12.8" style="fill: #000000;text-anchor:start;font-family:monospace;font-style:normal;font-weight:normal" x="23" y="78">-ID: číslo</text>
  </g>
  <g>
    <rect style="fill: #ffffff" x="20" y="140" width="194.8" height="44"/>
    <rect style="fill: none; fill-opacity:0; stroke-width: 2; stroke: #000000" x="20" y="140" width="194.8" height="44"/>
    <text font-size="12.8" style="fill: #000000;text-anchor:middle;font-family:monospace;font-style:normal;font-weight:normal" x="117.4" y="156">&lt;&lt;abstract&gt;&gt;</text>
    <text font-size="16" style="fill: #000000;text-anchor:middle;font-family:sans-serif;font-style:italic;font-weight:700" x="117.4" y="175">Uzel</text>
    <rect style="fill: #ffffff" x="20" y="184" width="194.8" height="52"/>
    <rect style="fill: none; fill-opacity:0; stroke-width: 2; stroke: #000000" x="20" y="184" width="194.8" height="52"/>
    <text font-size="12.8" style="fill: #000000;text-anchor:start;font-family:monospace;font-style:normal;font-weight:normal" x="23" y="198">+Nadpis: text</text>
    <text font-size="12.8" style="fill: #000000;text-anchor:start;font-family:monospace;font-style:normal;font-weight:normal" x="23" y="214">+Status: logická hodnota</text>
    <text font-size="12.8" style="fill: #000000;text-anchor:start;font-family:monospace;font-style:normal;font-weight:normal" x="23" y="230">-URL: text</text>
  </g>
  <g>
    <polyline style="fill: none; fill-opacity:0; stroke-width: 2; stroke: #000000" points="71.2,103.244 71.2,120.001 117.4,120.001 117.4,138.994 "/>
    <polygon style="fill: #ffffff" points="79.2,103.244 71.2,87.2441 63.2,103.244 "/>
    <polygon style="fill: none; fill-opacity:0; stroke-width: 2; stroke: #000000" points="79.2,103.244 71.2,87.2441 63.2,103.244 "/>
  </g>
  <g>
    <rect style="fill: #ffffff" x="240" y="140" width="148.6" height="28"/>
    <rect style="fill: none; fill-opacity:0; stroke-width: 2; stroke: #000000" x="240" y="140" width="148.6" height="28"/>
    <text font-size="16" style="fill: #000000;text-anchor:middle;font-family:sans-serif;font-style:normal;font-weight:700" x="314.3" y="159">Zákon</text>
    <rect style="fill: #ffffff" x="240" y="168" width="148.6" height="68"/>
    <rect style="fill: none; fill-opacity:0; stroke-width: 2; stroke: #000000" x="240" y="168" width="148.6" height="68"/>
    <text font-size="12.8" style="fill: #000000;text-anchor:start;font-family:monospace;font-style:normal;font-weight:normal" x="243" y="182">+Nadpis: text</text>
    <text font-size="12.8" style="fill: #000000;text-anchor:start;font-family:monospace;font-style:normal;font-weight:normal" x="243" y="198">+ASPI odkaz: odkaz</text>
    <text font-size="12.8" style="fill: #000000;text-anchor:start;font-family:monospace;font-style:normal;font-weight:normal" x="243" y="214">+Typ: číselník</text>
    <text font-size="12.8" style="fill: #000000;text-anchor:start;font-family:monospace;font-style:normal;font-weight:normal" x="243" y="230">+Číslo: text</text>
  </g>
  <g>
    <polyline style="fill: none; fill-opacity:0; stroke-width: 2; stroke: #000000" points="71.2,103.244 71.2,120.001 314.3,120.001 314.3,138.994 "/>
    <polygon style="fill: #ffffff" points="79.2,103.244 71.2,87.2441 63.2,103.244 "/>
    <polygon style="fill: none; fill-opacity:0; stroke-width: 2; stroke: #000000" points="79.2,103.244 71.2,87.2441 63.2,103.244 "/>
  </g>
  <g>
    <rect style="fill: #ffffff" x="420" y="300" width="156.3" height="28"/>
    <rect style="fill: none; fill-opacity:0; stroke-width: 2; stroke: #000000" x="420" y="300" width="156.3" height="28"/>
    <text font-size="16" style="fill: #000000;text-anchor:middle;font-family:sans-serif;font-style:normal;font-weight:700" x="498.15" y="319">Vtip</text>
    <rect style="fill: #ffffff" x="420" y="328" width="156.3" height="20"/>
    <rect style="fill: none; fill-opacity:0; stroke-width: 2; stroke: #000000" x="420" y="328" width="156.3" height="20"/>
    <text font-size="12.8" style="fill: #000000;text-anchor:start;font-family:monospace;font-style:normal;font-weight:normal" x="423" y="342">+Obsah: dlouhý text</text>
  </g>
  <g>
    <rect style="fill: #ffffff" x="20" y="300" width="156.3" height="28"/>
    <rect style="fill: none; fill-opacity:0; stroke-width: 2; stroke: #000000" x="20" y="300" width="156.3" height="28"/>
    <text font-size="16" style="fill: #000000;text-anchor:middle;font-family:sans-serif;font-style:normal;font-weight:700" x="98.15" y="319">Předmět</text>
    <rect style="fill: #ffffff" x="20" y="328" width="156.3" height="68"/>
    <rect style="fill: none; fill-opacity:0; stroke-width: 2; stroke: #000000" x="20" y="328" width="156.3" height="68"/>
    <text font-size="12.8" style="fill: #000000;text-anchor:start;font-family:monospace;font-style:normal;font-weight:normal" x="23" y="342">+Kód: text</text>
    <text font-size="12.8" style="fill: #000000;text-anchor:start;font-family:monospace;font-style:normal;font-weight:normal" x="23" y="358">+Ročník: číselník</text>
    <text font-size="12.8" style="fill: #000000;text-anchor:start;font-family:monospace;font-style:normal;font-weight:normal" x="23" y="374">+Obecnost: číselník</text>
    <text font-size="12.8" style="fill: #000000;text-anchor:start;font-family:monospace;font-style:normal;font-weight:normal" x="23" y="390">+Obsah: dlouhý text</text>
  </g>
  <g>
    <rect style="fill: #ffffff" x="20" y="460" width="110.1" height="44"/>
    <rect style="fill: none; fill-opacity:0; stroke-width: 2; stroke: #000000" x="20" y="460" width="110.1" height="44"/>
    <text font-size="12.8" style="fill: #000000;text-anchor:middle;font-family:monospace;font-style:normal;font-weight:normal" x="75.05" y="476">&lt;&lt;interface&gt;&gt;</text>
    <text font-size="16" style="fill: #000000;text-anchor:middle;font-family:sans-serif;font-style:italic;font-weight:700" x="75.05" y="495">Médium</text>
    <rect style="fill: #ffffff" x="20" y="504" width="110.1" height="20"/>
    <rect style="fill: none; fill-opacity:0; stroke-width: 2; stroke: #000000" x="20" y="504" width="110.1" height="20"/>
    <text font-size="12.8" style="fill: #000000;text-anchor:start;font-family:monospace;font-style:normal;font-weight:normal" x="23" y="518">+URL: text</text>
  </g>
  <g>
    <rect style="fill: #ffffff" x="20" y="600" width="102.9" height="28"/>
    <rect style="fill: none; fill-opacity:0; stroke-width: 2; stroke: #000000" x="20" y="600" width="102.9" height="28"/>
    <text font-size="16" style="fill: #000000;text-anchor:middle;font-family:sans-serif;font-style:normal;font-weight:700" x="71.45" y="619">Dokument</text>
    <rect style="fill: #ffffff" x="20" y="628" width="102.9" height="8"/>
    <rect style="fill: none; fill-opacity:0; stroke-width: 2; stroke: #000000" x="20" y="628" width="102.9" height="8"/>
  </g>
  <g>
    <polyline style="fill: none; fill-opacity:0; stroke-width: 2; stroke-dasharray: 8; stroke: #000000" points="75.05,543.244 75.05,569.999 71.45,569.999 71.45,598.991 "/>
    <polygon style="fill: #ffffff" points="83.05,543.244 75.05,527.244 67.05,543.244 "/>
    <polygon style="fill: none; fill-opacity:0; stroke-width: 2; stroke: #000000" points="83.05,543.244 75.05,527.244 67.05,543.244 "/>
  </g>
  <g>
    <rect style="fill: #ffffff" x="140" y="600" width="84.55" height="28"/>
    <rect style="fill: none; fill-opacity:0; stroke-width: 2; stroke: #000000" x="140" y="600" width="84.55" height="28"/>
    <text font-size="16" style="fill: #000000;text-anchor:middle;font-family:sans-serif;font-style:normal;font-weight:700" x="182.275" y="619">Obrázek</text>
    <rect style="fill: #ffffff" x="140" y="628" width="84.55" height="8"/>
    <rect style="fill: none; fill-opacity:0; stroke-width: 2; stroke: #000000" x="140" y="628" width="84.55" height="8"/>
  </g>
  <g>
    <polyline style="fill: none; fill-opacity:0; stroke-width: 2; stroke-dasharray: 8; stroke: #000000" points="75.05,543.244 75.05,569.999 182.275,569.999 182.275,598.991 "/>
    <polygon style="fill: #ffffff" points="83.05,543.244 75.05,527.244 67.05,543.244 "/>
    <polygon style="fill: none; fill-opacity:0; stroke-width: 2; stroke: #000000" points="83.05,543.244 75.05,527.244 67.05,543.244 "/>
  </g>
  <g>
    <rect style="fill: #ffffff" x="240" y="600" width="60.9" height="28"/>
    <rect style="fill: none; fill-opacity:0; stroke-width: 2; stroke: #000000" x="240" y="600" width="60.9" height="28"/>
    <text font-size="16" style="fill: #000000;text-anchor:middle;font-family:sans-serif;font-style:normal;font-weight:700" x="270.45" y="619">Video</text>
    <rect style="fill: #ffffff" x="240" y="628" width="60.9" height="8"/>
    <rect style="fill: none; fill-opacity:0; stroke-width: 2; stroke: #000000" x="240" y="628" width="60.9" height="8"/>
  </g>
  <g>
    <polyline style="fill: none; fill-opacity:0; stroke-width: 2; stroke-dasharray: 8; stroke: #000000" points="75.05,543.244 75.05,569.999 270.45,569.999 270.45,598.991 "/>
    <polygon style="fill: #ffffff" points="83.05,543.244 75.05,527.244 67.05,543.244 "/>
    <polygon style="fill: none; fill-opacity:0; stroke-width: 2; stroke: #000000" points="83.05,543.244 75.05,527.244 67.05,543.244 "/>
  </g>
  <g>
    <polyline style="fill: none; fill-opacity:0; stroke-width: 2; stroke: #000000" points="98.15,397.006 98.15,427.999 75.05,427.999 75.05,458.992 "/>
    <line style="fill: none; fill-opacity:0; stroke-width: 2; stroke: #000000" x1="98.15" y1="407.006" x2="103.15" y2="397.006"/>
    <line style="fill: none; fill-opacity:0; stroke-width: 2; stroke: #000000" x1="98.15" y1="407.006" x2="93.15" y2="397.006"/>
    <path style="fill: none; fill-opacity:0; stroke-width: 2; stroke: #000000" d="M 98.15 409.506 C 100.65,409.506 103.15,410.756 103.15,412.006 C 103.15,413.256 100.65,414.506 98.15,414.506 C 95.65,414.506 93.15,413.256 93.15,412.006 C 93.15,410.756 95.65,409.506 98.15,409.506"/>
    <line style="fill: none; fill-opacity:0; stroke-width: 2; stroke: #000000" x1="75.05" y1="448.992" x2="70.05" y2="458.992"/>
    <line style="fill: none; fill-opacity:0; stroke-width: 2; stroke: #000000" x1="75.05" y1="448.992" x2="80.05" y2="458.992"/>
  </g>
  <g>
    <polyline style="fill: none; fill-opacity:0; stroke-width: 2; stroke: #000000" points="117.4,255.242 117.4,276 98.15,276 98.15,298.994 "/>
    <polygon style="fill: #ffffff" points="125.4,255.242 117.4,239.242 109.4,255.242 "/>
    <polygon style="fill: none; fill-opacity:0; stroke-width: 2; stroke: #000000" points="125.4,255.242 117.4,239.242 109.4,255.242 "/>
  </g>
  <g>
    <rect style="fill: #ffffff" x="240" y="300" width="156.3" height="28"/>
    <rect style="fill: none; fill-opacity:0; stroke-width: 2; stroke: #000000" x="240" y="300" width="156.3" height="28"/>
    <text font-size="16" style="fill: #000000;text-anchor:middle;font-family:sans-serif;font-style:normal;font-weight:700" x="318.15" y="319">Obor práva</text>
    <rect style="fill: #ffffff" x="240" y="328" width="156.3" height="52"/>
    <rect style="fill: none; fill-opacity:0; stroke-width: 2; stroke: #000000" x="240" y="328" width="156.3" height="52"/>
    <text font-size="12.8" style="fill: #000000;text-anchor:start;font-family:monospace;font-style:normal;font-weight:normal" x="243" y="342">+Kód: text</text>
    <text font-size="12.8" style="fill: #000000;text-anchor:start;font-family:monospace;font-style:normal;font-weight:normal" x="243" y="358">+Váha: číslo</text>
    <text font-size="12.8" style="fill: #000000;text-anchor:start;font-family:monospace;font-style:normal;font-weight:normal" x="243" y="374">+Obsah: dlouhý text</text>
  </g>
  <g>
    <polyline style="fill: none; fill-opacity:0; stroke-width: 2; stroke: #000000" points="238.99,340 208.15,340 208.15,348 177.31,348 "/>
    <line style="fill: none; fill-opacity:0; stroke-width: 2; stroke: #000000" x1="228.99" y1="340" x2="238.99" y2="345"/>
    <line style="fill: none; fill-opacity:0; stroke-width: 2; stroke: #000000" x1="228.99" y1="340" x2="238.99" y2="335"/>
    <path style="fill: none; fill-opacity:0; stroke-width: 2; stroke: #000000" d="M 226.49 340 C 226.49,342.5 225.24,345 223.99,345 C 222.74,345 221.49,342.5 221.49,340 C 221.49,337.5 222.74,335 223.99,335 C 225.24,335 226.49,337.5 226.49,340"/>
    <line style="fill: none; fill-opacity:0; stroke-width: 2; stroke: #000000" x1="187.31" y1="348" x2="177.31" y2="343"/>
    <line style="fill: none; fill-opacity:0; stroke-width: 2; stroke: #000000" x1="187.31" y1="348" x2="177.31" y2="353"/>
    <path style="fill: none; fill-opacity:0; stroke-width: 2; stroke: #000000" d="M 189.81 348 C 189.81,345.5 191.06,343 192.31,343 C 193.56,343 194.81,345.5 194.81,348 C 194.81,350.5 193.56,353 192.31,353 C 191.06,353 189.81,350.5 189.81,348"/>
  </g>
  <g>
    <polyline style="fill: none; fill-opacity:0; stroke-width: 2; stroke: #000000" points="117.4,255.242 117.4,276 318.15,276 318.15,298.995 "/>
    <polygon style="fill: #ffffff" points="125.4,255.242 117.4,239.242 109.4,255.242 "/>
    <polygon style="fill: none; fill-opacity:0; stroke-width: 2; stroke: #000000" points="125.4,255.242 117.4,239.242 109.4,255.242 "/>
  </g>
  <g>
    <polyline style="fill: none; fill-opacity:0; stroke-width: 2; stroke: #000000" points="117.4,255.242 117.4,276 498.15,276 498.15,298.994 "/>
    <polygon style="fill: #ffffff" points="125.4,255.242 117.4,239.242 109.4,255.242 "/>
    <polygon style="fill: none; fill-opacity:0; stroke-width: 2; stroke: #000000" points="125.4,255.242 117.4,239.242 109.4,255.242 "/>
  </g>
  <g>
    <rect style="fill: #ffffff" x="600" y="300" width="156.3" height="28"/>
    <rect style="fill: none; fill-opacity:0; stroke-width: 2; stroke: #000000" x="600" y="300" width="156.3" height="28"/>
    <text font-size="16" style="fill: #000000;text-anchor:middle;font-family:sans-serif;font-style:normal;font-weight:700" x="678.15" y="319">Příběh</text>
    <rect style="fill: #ffffff" x="600" y="328" width="156.3" height="20"/>
    <rect style="fill: none; fill-opacity:0; stroke-width: 2; stroke: #000000" x="600" y="328" width="156.3" height="20"/>
    <text font-size="12.8" style="fill: #000000;text-anchor:start;font-family:monospace;font-style:normal;font-weight:normal" x="603" y="342">+Obsah: dlouhý text</text>
  </g>
  <g>
    <rect style="fill: #ffffff" x="780" y="300" width="156.3" height="28"/>
    <rect style="fill: none; fill-opacity:0; stroke-width: 2; stroke: #000000" x="780" y="300" width="156.3" height="28"/>
    <text font-size="16" style="fill: #000000;text-anchor:middle;font-family:sans-serif;font-style:normal;font-weight:700" x="858.15" y="319">Novinka</text>
    <rect style="fill: #ffffff" x="780" y="328" width="156.3" height="20"/>
    <rect style="fill: none; fill-opacity:0; stroke-width: 2; stroke: #000000" x="780" y="328" width="156.3" height="20"/>
    <text font-size="12.8" style="fill: #000000;text-anchor:start;font-family:monospace;font-style:normal;font-weight:normal" x="783" y="342">+Obsah: dlouhý text</text>
  </g>
  <g>
    <polyline style="fill: none; fill-opacity:0; stroke-width: 2; stroke: #000000" points="117.4,255.242 117.4,276 678.15,276 678.15,298.994 "/>
    <polygon style="fill: #ffffff" points="125.4,255.242 117.4,239.242 109.4,255.242 "/>
    <polygon style="fill: none; fill-opacity:0; stroke-width: 2; stroke: #000000" points="125.4,255.242 117.4,239.242 109.4,255.242 "/>
  </g>
  <g>
    <polyline style="fill: none; fill-opacity:0; stroke-width: 2; stroke: #000000" points="117.4,255.242 117.4,276 858.15,276 858.15,298.994 "/>
    <polygon style="fill: #ffffff" points="125.4,255.242 117.4,239.242 109.4,255.242 "/>
    <polygon style="fill: none; fill-opacity:0; stroke-width: 2; stroke: #000000" points="125.4,255.242 117.4,239.242 109.4,255.242 "/>
  </g>
  <g>
    <polyline style="fill: none; fill-opacity:0; stroke-width: 2; stroke: #000000" points="318.15,298.995 318.15,268 314.3,268 314.3,237.006 "/>
    <line style="fill: none; fill-opacity:0; stroke-width: 2; stroke: #000000" x1="318.15" y1="288.995" x2="313.15" y2="298.995"/>
    <line style="fill: none; fill-opacity:0; stroke-width: 2; stroke: #000000" x1="318.15" y1="288.995" x2="323.15" y2="298.995"/>
    <path style="fill: none; fill-opacity:0; stroke-width: 2; stroke: #000000" d="M 318.15 286.495 C 315.65,286.495 313.15,285.245 313.15,283.995 C 313.15,282.745 315.65,281.495 318.15,281.495 C 320.65,281.495 323.15,282.745 323.15,283.995 C 323.15,285.245 320.65,286.495 318.15,286.495"/>
    <line style="fill: none; fill-opacity:0; stroke-width: 2; stroke: #000000" x1="314.3" y1="247.006" x2="319.3" y2="237.006"/>
    <line style="fill: none; fill-opacity:0; stroke-width: 2; stroke: #000000" x1="314.3" y1="247.006" x2="309.3" y2="237.006"/>
    <path style="fill: none; fill-opacity:0; stroke-width: 2; stroke: #000000" d="M 314.3 249.506 C 316.8,249.506 319.3,250.756 319.3,252.006 C 319.3,253.256 316.8,254.506 314.3,254.506 C 311.8,254.506 309.3,253.256 309.3,252.006 C 309.3,250.756 311.8,249.506 314.3,249.506"/>
  </g>
</svg>
